<svg width="24" height="24" viewBox="0 0 24 24" fill="none" xmlns="http://www.w3.org/2000/svg">
<g id="Frame 1000002740">
<rect id="Rectangle 4406" width="24" height="24" rx="4" fill="white"/>
<path id="Vector" d="M12.0134 5.5C9.74519 5.5 8.27607 6.39422 7.12267 7.98899C6.91344 8.27829 6.97794 8.67494 7.26981 8.88789L8.49565 9.78228C8.79042 9.99734 9.20982 9.94705 9.44059 9.66886C10.1524 8.81078 10.6804 8.31673 11.7923 8.31673C12.6665 8.31673 13.7478 8.85811 13.7478 9.67383C13.7478 10.2905 13.2188 10.6072 12.3556 11.0728C11.349 11.6159 10.0169 12.2917 10.0169 13.9824V14.25C10.0169 14.6124 10.3222 14.9062 10.6989 14.9062H12.7583C13.135 14.9062 13.4403 14.6124 13.4403 14.25V14.0921C13.4403 12.9202 17 12.8714 17 9.7C17 7.31169 14.4254 5.5 12.0134 5.5ZM11.7286 15.7118C10.6432 15.7118 9.76016 16.5615 9.76016 17.6059C9.76016 18.6503 10.6432 19.5 11.7286 19.5C12.814 19.5 13.6971 18.6503 13.6971 17.6059C13.6971 16.5614 12.814 15.7118 11.7286 15.7118Z" fill="#97ABC1"/>
</g>
</svg>
