<svg width="18" height="19" viewBox="0 0 18 19" fill="none" xmlns="http://www.w3.org/2000/svg">
<path d="M1.37109 7.13281C1.37109 4.30439 1.37109 2.89017 2.24977 2.01149C3.12845 1.13281 4.54267 1.13281 7.37109 1.13281H11.3711C14.1995 1.13281 15.6137 1.13281 16.4924 2.01149C17.3711 2.89017 17.3711 4.30439 17.3711 7.13281V13.9604C17.3711 16.6437 17.3711 17.9854 16.5268 18.3957C15.6825 18.8061 14.6275 17.9772 12.5176 16.3194L11.8424 15.7888C10.656 14.8567 10.0628 14.3906 9.37109 14.3906C8.67937 14.3906 8.08618 14.8567 6.89981 15.7888L6.22456 16.3194C4.11464 17.9772 3.05968 18.8061 2.21539 18.3957C1.37109 17.9854 1.37109 16.6437 1.37109 13.9604V7.13281Z" stroke="#222222"/>
</svg>
